<?xml version="1.0" standalone="no"?>
<!DOCTYPE svg PUBLIC "-//W3C//DTD SVG 1.1//EN" "http://www.w3.org/Graphics/SVG/1.1/DTD/svg11.dtd" >
<svg xmlns="http://www.w3.org/2000/svg">
<metadata></metadata>
<defs>
<font id="bancoregular" horiz-adv-x="1024" >
<font-face units-per-em="2048" ascent="1638" descent="-410" />
<missing-glyph horiz-adv-x="512" />
<glyph horiz-adv-x="0" />
<glyph horiz-adv-x="682" />
<glyph unicode=" "  horiz-adv-x="512" />
<glyph unicode="&#x09;" horiz-adv-x="512" />
<glyph unicode="&#xa0;" horiz-adv-x="512" />
<glyph unicode="!" horiz-adv-x="722" d="M-2 -2l74 358h368l-78 -358h-364zM111 524q0 2 8 55q15 96 51 301t51 300q0 27 12 73l17 99q2 23 6 47l8 49q22 135 29 184l428 4l-266 -1114q0 -4 -3 -4h-288q-53 0 -53 6z" />
<glyph unicode="&#x22;" horiz-adv-x="473" d="M127 1419l33 217h123l-45 -217h-111zM332 1419l33 217h118l-45 -217h-106z" />
<glyph unicode="#" />
<glyph unicode="$" horiz-adv-x="1026" d="M6 127q0 -4 9 5l30 30q13 12 27.5 26.5t32.5 33t28 28.5q0 4 6.5 11t15 14.5t10.5 9.5q7 8 35 39t39.5 45t31.5 41t32 51.5t20 50.5q7 22 7 47q0 10 -4 24.5t-4 22.5q-38 76 -144 164v4q-125 94 -125 244q0 43 7 81.5t26 81.5t28.5 61t36.5 67q34 60 68 108l121 2l92 219 h180l-90 -215h123l29 103l348 2l-102 -498l-336 -2q6 29 12.5 90.5t11.5 87.5v7q0 2 2 4v2l8 73q2 6 4 17t3 16q0 13 4 27q-5 -5 -15 -12t-14 -11q-44 -39 -72 -105.5t-28 -142.5q0 -54 20 -100t42.5 -70t62.5 -61t57 -55q51 -57 81 -112t30 -124q0 -58 -25 -108 q-12 -33 -34 -69t-36 -54.5t-50.5 -62t-43.5 -52.5q-34 -43 -72 -90l-182 4l-61 -131h-180l45 131h-148z" />
<glyph unicode="%" horiz-adv-x="2420" d="M0 961v77q0 11 2 39l4 41q50 346 178 465h174q10 -2 17 -2h246q-91 -122 -152 -287.5t-74 -344.5q-2 -36 -2 -54q0 -181 90 -256h-145q-14 -2 -22 -2h-222v4q-94 58 -94 320zM457 616v5q47 61 88 219q53 190 62 387l3 45v21q0 8 2 24v43q0 9 -2 46.5t-3 50.5t-3.5 44 t-5.5 48t-8 39t-12 40h393q98 -127 98 -438v-31q-7 -302 -95 -467q-27 -51 -63 -76h-454zM596 0l934 1565h344q0 -3 -41 -67q-22 -33 -125 -185q-100 -153 -219 -330.5t-262 -391t-221 -329.5q-15 -23 -48.5 -74t-49 -73.5t-39.5 -56t-46 -58.5v2q-60 -2 -84 -2h-143z M1366 338v38q0 27 6 79l4 41q49 346 176 465h174q1 0 7.5 -1.5t9.5 -1.5h248q-91 -122 -152 -287t-74 -344q-2 -36 -2 -55q0 -181 90 -256h-145q-14 -2 -21 -2h-223v4q-98 61 -98 320zM1827 -1q0 1 2 1h1q12 0 45 92q71 203 95 463q3 18 5 53t3 41v24q0 7 2 23v45 q0 161 -32 265h391q100 -131 100 -443v-31q-7 -300 -95 -462q-26 -50 -63 -72h-454v1z" />
<glyph unicode="&#x26;" horiz-adv-x="1107" d="M0 362q0 115 42 205t116 187q60 73 131 133v4q-88 95 -107 283v12q-2 6 -2 7v30q0 190 105 295h77q22 -2 36 -2h132q-62 -73 -86 -123l-12 -25q-1 -2 -3.5 -12t-4.5 -15l-8 -24l-7 -28t-6 -39v-21q0 -82 50 -148q57 39 88.5 124t31.5 188q0 58 -10 104l-8 37q-6 14 -6 22 l-17 50q-3 3 -10 22h104q18 0 62 2h219q74 -104 74 -239q0 -75 -18 -143.5t-52 -130t-65 -106t-76 -101.5q-14 -17 -20 -25q-62 -79 -129 -156l491 -733h-278l-15 20q-50 71 -165 253.5t-181 271.5q-67 -37 -67 -160v-16q0 -3 1 -9t1 -10v-8q0 -2 2 -8q0 -4 1 -10t1 -9 q17 -103 69 -172h-393q-88 80 -88 223z" />
<glyph unicode="'" horiz-adv-x="280" d="M127 1419l33 217h123l-45 -217h-111z" />
<glyph unicode="(" horiz-adv-x="651" d="M0 557q0 410 174 766q80 165 217 315h264q-299 -362 -385 -872q-16 -122 -16 -238q0 -349 143 -534h-280q-117 197 -117 563z" />
<glyph unicode=")" horiz-adv-x="624" d="M0 -4q259 330 356 743q41 175 41 361q0 323 -143 534h254v4q129 -241 129 -608q0 -153 -25 -287l-8 -49q-31 -186 -131 -391q-75 -160 -213 -307h-260z" />
<glyph unicode="*" />
<glyph unicode="+" />
<glyph unicode="," horiz-adv-x="198" d="M29 -227l32 217h123l-45 -217h-110z" />
<glyph unicode="-" horiz-adv-x="804" d="M147 467l50 184h454l-61 -184h-443z" />
<glyph unicode="." horiz-adv-x="239" d="M41 -6l33 217h184l-45 -217h-172z" />
<glyph unicode="/" />
<glyph unicode="0" horiz-adv-x="1122" d="M0 559q0 206 46.5 388t130.5 395q58 145 130 292h768q58 -192 58 -452v-37q0 -2 -3 -35q0 -342 -137 -731q-92 -252 -229 -381h-600q-164 219 -164 561zM418 446q0 -164 28 -276q0 -12 6 -32.5t7 -24.5q4 6 15 24.5t15.5 26.5t14 25.5t15 29.5t13 29.5t13.5 35.5 q19 55 49 156q80 348 100 586v8q0 2 2 8v23q0 2 2 8v33q-2 6 -2 9v30q-2 6 -2 9v9l-4 25q-2 16 -2 24q0 3 -1.5 11t-2.5 12l-4 25q-23 121 -43 182q-6 17 -10 37q-5 -14 -17.5 -39t-17.5 -37q-140 -333 -172 -887q-2 -24 -2 -36v-34z" />
<glyph unicode="1" horiz-adv-x="694" d="M-2 -4l135 1016h-135l160 624h557l-303 -1640h-414z" />
<glyph unicode="2" horiz-adv-x="1136" d="M-2 -2q2 0 28 35q55 74 163 225t143 199q22 22 55 72t49 69l45 61q5 7 20 27.5t23 30.5v4q174 217 174 539q0 156 -43 274h410q22 -67 35 -111.5t24 -112t11 -132.5q0 -128 -32.5 -231.5t-92.5 -216.5q-43 -82 -96.5 -157.5t-135.5 -181.5q-79 -101 -155 -190l417 4v-207 h-1042zM131 997l107 639h399l-154 -639h-352z" />
<glyph unicode="3" horiz-adv-x="1042" d="M2 -4q142 58 255.5 170t162.5 251q5 14 16 72q0 6 1 17.5t1 17.5q0 176 -209 254v4q245 81 351 279q47 88 47 149v9q0 2 2 10v16q0 185 -164 291h471q123 -147 123 -328q0 -166 -86 -280.5t-223 -177.5q188 -97 188 -275v-12q0 -4 -2 -12q0 -5 -1 -14t-1 -13 q-11 -74 -46.5 -136.5t-90.5 -125.5q-88 -101 -195 -166h-600zM51 1087l99 549h403l-109 -549h-393z" />
<glyph unicode="4" horiz-adv-x="1191" d="M2 238l313 1400h463l-393 -1189h217l137 1056h457l-197 -1120h109v-147h-133l-49 -238l-361 -4l23 240z" />
<glyph unicode="5" horiz-adv-x="1067" d="M6 0q38 27 73.5 57.5t80 78t60.5 65.5t69 78l28 32q138 166 170 321q7 35 7 56q0 98 -95 178q-96 74 -329 99v4l104 669h885l-35 -266h-442q0 -90 -35 -214q-2 -10 -2 -13q-4 -18 -4 -27q-3 -21 -12.5 -59.5t-10.5 -44.5q161 -17 268 -69t154 -155q27 -59 27 -128 q0 -56 -11.5 -109t-36 -103.5t-44 -84t-52.5 -82.5q-15 -23 -33.5 -46.5t-49 -60.5t-38.5 -47q-8 -11 -18 -18q-59 -74 -113 -111h-565z" />
<glyph unicode="6" horiz-adv-x="1112" d="M0 424q0 133 30 255t85 263q118 305 325 692h500q-91 -146 -153 -254t-128.5 -244t-113.5 -275.5t-77 -289.5q-26 -130 -26 -225q0 -147 50 -285q0 3 12 15q118 167 160 434q3 14 5 41.5t3 32.5q0 7 1 18.5t1 18.5q2 10 2 17v17q0 243 -141 324h481q84 -84 84 -291 q0 -261 -129 -489q-66 -124 -166 -199h-660q-145 168 -145 424z" />
<glyph unicode="7" horiz-adv-x="1122" d="M2 -4l506 1362h-506l64 278h1071l-752 -1640h-383z" />
<glyph unicode="8" horiz-adv-x="1067" d="M0 260v33q0 53 16 98q21 97 71.5 181t125.5 173q-160 104 -160 310q0 82 21 145l16 49q43 128 148 242v4q0 -4 18 -4h367q-131 -149 -131 -307q0 -127 106 -201q84 61 84 260v19q-2 6 -2 9v32q-2 6 -2 9v9q-9 95 -37.5 176.5t-75.5 132.5h410q115 -106 115 -334v-22 q0 -1 -1.5 -5t-1.5 -6v-12q0 -139 -86 -301q-63 -118 -174 -188q68 -28 102 -104.5t34 -180.5v-26q-2 -10 -2 -16v-13q-34 -240 -127 -365q-27 -37 -64 -61h-664q-106 99 -106 264zM342 252q0 -106 76 -182q11 -11 16 -11q141 91 141 244q0 67 -24 113t-67 86 q-8 7 -22.5 16.5t-19.5 13.5q-3 -8 -15 -23.5t-16 -23.5q-4 -7 -17.5 -32.5t-19 -38.5t-14.5 -36t-12.5 -45t-3.5 -46q0 -3 -1 -9t-1 -8v-18z" />
<glyph unicode="9" horiz-adv-x="1124" d="M2 950v44q0 191 91 409q16 40 24 57.5t27 42t42 35.5q5 2 7 4h452q-150 -150 -225 -530q0 -8 -2 -23t-2 -22q-4 -36 -4 -86q0 -225 125 -312h-9q-6 -2 -9 -2h-13q-20 -2 -35 -2h-47q-53 -4 -127 -4q-50 -2 -78 -2h-86v4q-131 110 -131 387zM133 -4q344 321 473 827 q47 188 47 387q0 233 -75 424h462q86 -119 86 -389q0 -612 -382 -1129q-46 -63 -99 -120h-512z" />
<glyph unicode=":" horiz-adv-x="198" d="M43 8l25 111h98l-25 -111h-98zM76 166l26 110h99l-27 -110h-98z" />
<glyph unicode=";" horiz-adv-x="196" d="M43 -66l25 185h98l-25 -185h-98zM76 166l26 110h99l-27 -110h-98z" />
<glyph unicode="&#x3c;" />
<glyph unicode="=" />
<glyph unicode="&#x3e;" />
<glyph unicode="?" horiz-adv-x="847" d="M-6 0l74 365h368l-84 -365h-358zM-2 1516q13 0 27.5 3t37 9.5t35.5 9.5q105 26 215 53q9 0 13 4h4q1 0 4.5 2t5.5 2q31 6 83.5 20t72.5 19q162 -40 259 -152t97 -292q0 -192 -133 -407q-92 -149 -254 -295q2 2 -3 3q-3 1 -15 2q-14 1 -64 1h-336v4q13 9 27.5 24t23.5 27 t23.5 33t19.5 28q111 147 178 289q68 139 68 264q-3 83 -33.5 145.5t-86.5 102t-120.5 63t-148.5 38.5z" />
<glyph unicode="@" />
<glyph unicode="A" horiz-adv-x="1177" d="M0 -4l276 1501h439l20 139h459l-152 -1638h-393v336l-205 -19l-116 -317zM475 551l197 6l18 721z" />
<glyph unicode="B" horiz-adv-x="1220" d="M-4 -4l151 1380h443l-236 156l54 10q55 11 114 22.5t66 12.5h4l2 2h2q7 2 80.5 17.5t109.5 24.5l29 7q72 -28 124 -54t108 -62t96 -82.5t63 -102.5q25 -62 25 -125q0 -131 -90 -287q-90 -154 -246 -344q11 -9 45.5 -36t55.5 -45.5t40 -40.5q11 -12 17 -25l12 -25l8 -24 q0 -5 1 -14t1 -13q0 -65 -55 -145q-61 -94 -172 -205h-136q-25 0 -79 -2h-248q94 115 174 221q23 31 36.5 53t25.5 55.5t12 67.5q0 35 -15.5 62.5t-45 47t-54 30.5t-61.5 24l-113 -561h-348zM479 612l20 20q103 103 193 252q84 139 84 253q0 158 -180 217q-5 -60 -26 -176.5 t-25 -145.5l-8 -57q-8 -54 -28.5 -176t-29.5 -187z" />
<glyph unicode="C" horiz-adv-x="1122" d="M0 662q0 160 40 296t113 292q60 126 123 233l435 2l43 149l376 -2l-112 -798h-408q1 2 3 16l10 61q3 20 8.5 57.5t10.5 69.5t9 60v9q0 1 2 3v4q8 41 37 266q-87 -154 -139.5 -275.5t-78.5 -261.5q-13 -69 -13 -138v-13q0 -87 18 -160t55 -133.5t72 -102.5t91 -97 q48 -48 168 -144q1 -1 3 -2.5t4.5 -3t3.5 -2.5q9 -13 30 -26.5t40 -20.5h-148q-27 0 -89 -2h-336q-83 54 -146 115t-116 141t-81 183t-28 225z" />
<glyph unicode="D" horiz-adv-x="1234" d="M0 -4l147 1335l437 4q0 -4 -16 7q-30 22 -91.5 74.5t-91.5 75.5q-14 9 -14 11q-1 1 -4 3t-5 3q44 10 137.5 35t139.5 36q30 8 57 15q14 3 41 11t41 10q172 -71 278.5 -173.5t154.5 -265.5q26 -89 26 -178v-30q-2 -10 -2 -16v-15q-33 -226 -90 -358q-143 -335 -337 -564 l-17 -20h-791zM383 29q123 120 221 290.5t152 358.5q36 124 47 264v10q0 3 2 9v16q0 116 -57.5 210t-141.5 144q-4 0 -11.5 -34.5t-17.5 -88.5t-12 -63q-20 -99 -42 -223.5t-36 -208.5t-39.5 -240t-35.5 -217q-24 -185 -29 -227z" />
<glyph unicode="E" horiz-adv-x="999" d="M-2 -4l117 1161l129 96h-166l78 377l835 -2l-45 -330l-350 -26l-66 -361l355 11l-49 -281l-363 -33l-47 -319l350 -23l-49 -270h-729z" />
<glyph unicode="F" horiz-adv-x="1013" d="M0 -2l117 1161l129 96h-168l80 377l864 2l-45 -334l-379 -26l-78 -420h357l-50 -270l-364 -43l-68 -543h-395z" />
<glyph unicode="G" horiz-adv-x="1193" d="M0 575q0 129 30.5 247t86.5 253q68 156 181.5 289.5t274.5 269.5h629q-229 -183 -376 -342q-127 -137 -208 -269t-132 -296q-37 -120 -37 -219q0 -113 30 -195.5t87 -174.5q15 -24 57 -62l112 801h432l-147 -877h-860q-160 242 -160 575z" />
<glyph unicode="H" horiz-adv-x="1314" d="M0 -2l113 1499h462l-86 -725h254l88 856h478l-269 -1630h-372l43 563l-246 -33l-82 -530h-383z" />
<glyph unicode="I" horiz-adv-x="681" d="M4 -6l164 1636l512 -2q0 -8 -11 -69l-34 -197q-14 -80 -54 -315t-61 -355.5t-55 -306t-64 -333.5l-12 -60h-149q-20 2 -28 2h-208z" />
<glyph unicode="J" horiz-adv-x="722" d="M-2 -2q49 53 83.5 123t59 183.5t33 170t26.5 206.5q3 19 4 29q9 76 23 228t17 184l8 82q11 148 43 430h125q38 -2 61 -2h230q-13 -101 -17 -137l-8 -74q-14 -121 -27 -270l-4 -49q-2 -26 -6 -49q-24 -317 -123 -684q-80 -280 -247 -371h-281z" />
<glyph unicode="K" horiz-adv-x="1404" d="M6 20l184 1506h476l-140 -811l389 921h506l-508 -1093l332 -543h-485l-275 477l-100 -454z" />
<glyph unicode="L" horiz-adv-x="833" d="M-4 -4l182 1632h506l-233 -1331q0 -6 47 -10t73 -4q12 -2 34 -4t34 -3h16q2 -2 7 -2h8q8 -2 14 -2h16q70 -6 127 -18q0 -24 -12 -76t-12 -55v-4q-12 -73 -25 -123h-782z" />
<glyph unicode="M" horiz-adv-x="1622" d="M6 -2l123 1503h598l6 -948l314 1046l589 -38l-254 -1565h-350l88 905l-256 -872q0 -5 -39 -9t-59 -4q-9 -2 -27.5 -3.5t-27.5 -2.5h-9q-2 -2 -4 -2h-16q-88 -8 -104 -8h-78l-23 848q0 -18 -3 -37.5t-10.5 -51t-10.5 -48.5q-36 -192 -56 -291q-4 -4 -4 -8v-9 q-42 -227 -75 -371q-8 -32 -9 -32h-4q-2 0 -10 -2h-59q-9 0 -25 -2h-131q-8 2 -11 2h-63z" />
<glyph unicode="N" horiz-adv-x="1359" d="M0 -2l131 1548h631l78 -878l137 962h393q0 -8 -11 -66l-34 -188q-41 -250 -128.5 -734.5t-99.5 -551.5q-12 -63 -12 -65q0 -1 -9 -3l-27 -4q-92 -10 -146 -10q-20 -2 -29 -2h-28q-165 -6 -168 -6h-32q-9 0 -23 -2h-19l-98 920l-172 -920h-334z" />
<glyph unicode="O" horiz-adv-x="1204" d="M0 561q0 216 65 393.5t177 345.5h366q-79 -181 -127 -330t-72 -317q-12 -78 -12 -141v-16q0 -159 69 -307q4 -8 18.5 -30.5t17.5 -37.5v4q213 301 253 614q1 5 1 19q4 20 4 35q4 32 4 73q0 427 -385 662l23 5q83 18 294 60q7 0 17 4h4l6 2h8l16 4t19 5q18 0 51.5 8 t46.5 10q74 -63 130 -127.5t106 -148t77 -186.5t27 -220q0 -144 -36 -265.5t-100 -255.5q-115 -239 -275 -408l-17 -17h-590q-186 228 -186 563z" />
<glyph unicode="P" horiz-adv-x="1179" d="M2 -4l141 1382l451 2q0 -1 -5 -39l-16 -104q-14 -115 -52 -365t-52 -380q30 59 93.5 186t96.5 192q24 51 38 86t26 86t12 99q0 75 -32.5 127.5t-88.5 103.5q-30 27 -75.5 55t-73.5 42.5t-86 43.5q39 11 123.5 30.5t120.5 29.5l2 2h6q55 13 71 18l66 17q68 21 88 24 q123 -42 198 -111.5t109 -183.5q19 -65 19 -129q0 -81 -19.5 -166.5t-37 -130t-56.5 -131.5l-9 -21q-8 -18 -17 -37t-16.5 -34t-20 -36t-19 -32.5t-21 -34.5t-19.5 -31.5t-21.5 -33.5t-20 -30t-21.5 -32l-20 -30l-12 -18l-406 4l-90 -418z" />
<glyph unicode="Q" horiz-adv-x="1093" d="M0 557v72q0 170 44.5 311t122.5 286q20 39 42 70l41 62l330 8q-81 103 -95 117q-5 5 -6 8q-11 5 -27.5 27t-25.5 26l-6 6q-2 0 -6 4l69 13q19 3 71 11.5t81 14.5h7q22 0 70 10.5t50 10.5q17 2 43.5 8t36.5 8q258 -177 258 -508v-20q-2 -8 -2 -11v-28q-2 -8 -2 -11v-10 q-19 -208 -92.5 -382.5t-195.5 -372.5l-11 -19h-283q0 -10 3 -19t11 -19.5t11.5 -15.5t15 -16.5l12.5 -12.5q34 -38 64 -60q16 -8 35 -27q46 -33 104 -73l49 -29h-481q-284 192 -330 491q-8 59 -8 70zM383 682q0 -246 86 -365q1 -1 2.5 -4t3.5 -4q0 -3 3.5 -6t8 -6t5.5 -4 q10 14 21 32t18 31t18.5 38t15.5 34.5t16.5 40t14.5 35.5l12 37q2 5 15 37l24 81q24 77 49 207q0 14 4.5 36.5t4.5 35.5q4 20 4 35v39q0 190 -115 338v4q-3 -6 -34 -55.5t-42 -77.5q-75 -158 -119 -365q0 -1 -1 -6t-1 -6q-2 -6 -2 -7v-8q-4 -14 -4 -24q-6 -38 -6 -62 q-2 -20 -2 -29v-32z" />
<glyph unicode="R" horiz-adv-x="1222" d="M0 -2l127 1345l451 27q0 -18 -3 -37t-9 -47t-9 -49q-27 -213 -44 -298q-1 -3 -1 -9q-2 -8 -2 -11v-10q-20 -132 -42 -303l-9 -74q119 203 200 324q89 134 89 252v12l-3 15q0 42 -22 75q-31 67 -88.5 117.5t-146.5 106.5q-67 42 -148 84q38 11 141 35.5t154 41.5l33 9 q9 2 51.5 14t62.5 16q77 -29 134.5 -57t113.5 -67t96.5 -90.5t64.5 -114.5q23 -59 23 -127v-23q-2 -2 -2 -3v-3q-6 -78 -29.5 -150t-65 -139t-75 -111t-86.5 -105q-22 -26 -120 -124l278 -477l-448 -43l-224 440l-82 -440z" />
<glyph unicode="S" horiz-adv-x="1107" d="M0 -2q134 136 276 297q31 39 44 56t29 53.5t16 70.5v6l-3 3v18q-12 59 -67 121q-30 37 -150 168v4q-64 56 -86 163l-4 21q-2 14 -2 20q-2 14 -2 22v21q0 57 13 112.5t28.5 94t47.5 89.5t49 73.5t55 71.5h446q-109 -170 -136 -292q-9 -42 -9 -79q0 -78 31.5 -133 t87.5 -111l18 -18q70 -67 116 -130t67 -139q12 -40 12 -77v-17q0 -1 -1.5 -3.5t-1.5 -4.5v-8q-7 -27 -16.5 -54t-16.5 -46t-23 -46.5t-22 -39t-28 -42t-26.5 -36.5t-31.5 -41t-30 -39q-53 -70 -102 -131h-265q-6 2 -8 2h-305zM664 1057l77 547l371 30l-104 -567z" />
<glyph unicode="T" horiz-adv-x="983" d="M6 1237l29 383l936 18l-49 -352l-191 -20l-207 -1268l-411 -6l133 1167l166 90z" />
<glyph unicode="U" horiz-adv-x="1286" d="M0 508q0 110 13 231.5t28 208t40 215.5l9 45q31 159 66 318h467q-109 -487 -136 -615q-55 -254 -55 -430v-18q0 -294 199 -375l209 1548h458l-280 -1640h-350q-6 2 -10 2h-402q-135 63 -195.5 185.5t-60.5 324.5z" />
<glyph unicode="V" horiz-adv-x="1148" d="M-2 -2v1499h451l-43 -1225l323 1362h428l-438 -1636h-721z" />
<glyph unicode="W" horiz-adv-x="1634" d="M-4 1513h453l-56 -1024l262 1024h349l53 -1097l164 1220h421l-294 -1638h-527l-53 895l-252 -895h-516z" />
<glyph unicode="X" horiz-adv-x="1329" d="M-6 -2l409 770l-5 11q-4 9 -6 15l-34 89q-103 298 -226 612l-11 27q0 -4 61 -4h68q22 0 80 2h266l106 -361l236 479l391 2l-493 -837l276 -807l-430 2l-143 371l-228 -369z" />
<glyph unicode="Y" horiz-adv-x="1249" d="M0 967q0 260 43 549h188q9 -3 11 -3h250q-86 -434 -86 -749q0 -161 36 -268l295 1146h502l-500 -1642h-397l84 418l-352 -2q0 -3 -2 1q0 1 -1 3l-10 24q-5 13 -9 26.5t-8 29.5t-6.5 28t-6 31t-5 29.5t-4.5 33t-4 30.5t-4 33.5t-4 31.5q-10 86 -10 250z" />
<glyph unicode="Z" horiz-adv-x="1275" d="M-4 -4l586 1317h-492l72 323h1130l-741 -1384h399l-73 -256h-881z" />
<glyph unicode="[" />
<glyph unicode="\" />
<glyph unicode="]" />
<glyph unicode="^" />
<glyph unicode="_" />
<glyph unicode="`" />
<glyph unicode="a" horiz-adv-x="737" d="M0 -2l174 940l275 -2l12 88h287l-95 -1026h-245v213l-129 -14l-74 -199h-205zM297 346l123 4l12 451z" />
<glyph unicode="b" horiz-adv-x="761" d="M-2 0l96 864h277l-148 94q3 1 74 15.5t140 29.5t75 17q96 -38 156.5 -80t88.5 -109q15 -37 15 -77q-3 -55 -24 -111t-41 -88t-58 -85q-43 -59 -88 -114q23 -17 29 -22l24 -21q19 -15 29 -25t20.5 -29.5t10.5 -41.5q0 -15 -4 -31t-8.5 -27t-15.5 -26.5t-16 -22t-19 -23.5 t-17 -20q-30 -35 -64 -69h-85q-16 0 -48 -2h-155q22 26 58.5 73.5t49.5 63.5q47 63 47 113q-5 41 -33.5 64t-76.5 40l-70 -352zM301 385q70 70 115.5 139.5t68.5 159.5q0 4 1 14t1 15q0 97 -112 135q-7 -63 -30 -186.5t-30 -178.5l-7 -57q-4 -28 -7 -41z" />
<glyph unicode="c" horiz-adv-x="708" d="M0 416q0 100 25.5 187t70.5 182q32 66 78 145l270 6l27 90l236 2l-70 -502l-254 2q8 32 25 162v5q0 1 2 3v4l8 50q0 16 5 46.5t6 40.5q1 14 3 27q-35 -60 -54 -97t-43.5 -95.5t-36 -117t-11.5 -122.5q0 -104 39 -172t115 -143q73 -71 137 -113q6 -4 12 -6h-359v4 q-231 139 -231 412z" />
<glyph unicode="d" horiz-adv-x="763" d="M8 6l92 838h273q-54 44 -115 92h-3q-1 0 -1 2v2q-2 0 -2 1v1q-4 0 -16 12q63 13 135 35l73 17q8 2 17.5 4.5t19.5 5.5t15 4q133 -55 208.5 -145.5t75.5 -239.5v-21q-2 -8 -2 -11v-11q-4 -17 -4 -43q-52 -286 -274 -549zM246 27q105 105 175 251t87 318v25q0 73 -35 130.5 t-88 88.5q-4 0 -25 -113q-43 -197 -52 -282q-10 -81 -21 -123l-13 -78q-7 -48 -28 -217z" />
<glyph unicode="e" horiz-adv-x="624" d="M2 0l74 725l82 59h-105l49 236l523 2l-29 -209l-219 -16l-41 -224l221 5l-31 -177l-227 -20l-29 -199l219 -14l-30 -168h-457z" />
<glyph unicode="f" horiz-adv-x="651" d="M2 -2l76 725l80 59h-105l49 236l541 2l-29 -209l-235 -16l-49 -260l223 -3l-31 -170l-227 -26l-43 -338h-250z" />
<glyph unicode="g" horiz-adv-x="749" d="M4 356q0 139 74 310q77 179 284 350h394q-147 -117 -237 -213q-151 -159 -211 -353q-23 -72 -23 -135v-6q0 -45 11.5 -89t19.5 -61t32 -65q9 -17 45 -53l72 502h270l-92 -547h-539q-48 61 -74 155.5t-26 204.5z" />
<glyph unicode="h" horiz-adv-x="800" d="M0 -2l47 936h293l-31 -447h160l31 527h301l-146 -1016h-233l27 354l-154 -18l-53 -336h-242z" />
<glyph unicode="i" horiz-adv-x="430" d="M2 -4l104 1024h320q0 -7 -7 -45l-22 -123q-16 -88 -44.5 -257t-53 -306.5t-46.5 -254.5l-7 -38h-244z" />
<glyph unicode="j" horiz-adv-x="454" d="M4 0q42 42 69.5 120.5t36.5 133.5t23 170q3 21 4 31q14 121 23 215v20q0 7 2 21q0 35 3.5 78.5t7.5 75t10.5 81.5t9.5 74h77q22 -2 37 -2h146q-3 -36 -17.5 -153t-18.5 -179q-13 -223 -81 -459q-51 -176 -154 -227h-178z" />
<glyph unicode="k" horiz-adv-x="901" d="M-2 12l115 942h297l-86 -508l241 576h318l-318 -684l207 -340h-303l-172 301l-64 -287h-235z" />
<glyph unicode="l" horiz-adv-x="514" d="M-2 -4l115 1020h315l-145 -832q0 -4 9 -5l27 -3q14 -2 41 -3.5t41 -2.5h9q2 -2 4 -2h22q14 -2 82 -12q0 -17 -4 -41t-7 -39t-11 -44.5t-9 -35.5h-489z" />
<glyph unicode="m" horiz-adv-x="1040" d="M4 18v5l76 940h375l4 -592l196 653l369 -25l-160 -999h-219l55 588l-161 -559q0 -5 -44.5 -11t-60.5 -6h-12q-6 -1 -18 -2.5t-17 -1.5l-33 -4q-22 -2 -27 -2h-20l-8 553q0 -12 -2 -24.5t-7 -32t-7 -31.5q-5 -25 -16.5 -87t-18.5 -95v-9l-2 -2q-6 -36 -14 -75.5t-18 -87 t-15 -72.5l-4 -21q-2 -2 -10 -2h-144q-2 0 -10 2h-27z" />
<glyph unicode="n" horiz-adv-x="845" d="M0 2l84 969h393l49 -551l86 602h246q0 -7 -7 -43l-22 -117q-19 -107 -60 -339.5t-62 -348.5q-15 -80 -21 -118l-6 -40q0 -4 -23 -4q-23 -4 -55 -4h-16q-8 -2 -11 -2h-26q-6 -2 -9 -2h-10q-68 -4 -104 -4h-47l-62 578l-106 -576h-211z" />
<glyph unicode="o" horiz-adv-x="776" d="M2 324v24q0 108 26.5 196.5t75.5 186.5q11 22 25 43l25 37h229q-100 -227 -126 -412q-7 -48 -7 -92q0 -135 59 -223q5 -6 6 -10v4q125 169 160 383v9q0 3 2 11v28q0 3 2 11v19q0 270 -241 413l128 26q48 10 74 15h1q1 0 3 2h9q16 0 50.5 9t39.5 10q98 -83 154.5 -184 t56.5 -242q0 -139 -49 -253t-132 -235q-35 -51 -86 -102h-368q-53 53 -75 129q-3 11 -11.5 36t-14 45t-8.5 40l-4 24q-2 16 -2 27q-2 16 -2 25z" />
<glyph unicode="p" horiz-adv-x="735" d="M2 -2l90 866l283 -2q0 -4 -3 -25l-10 -65q-7 -68 -26 -186v-2l-2 -2v-4q-3 -19 -16 -105t-18 -130q-3 -26 -3 -38l119 238q47 100 47 168q0 59 -31 98.5t-82 73.5q-62 42 -110 63q68 13 151 37l2 2h2q11 4 144 37q96 -35 149 -97t53 -169v-13q0 -4 -2 -12q0 -5 -1 -13.5 t-1 -12.5q0 -11 -4 -25q0 -15 -3 -29t-9.5 -33.5l-8.5 -25.5q-47 -158 -175 -334l-254 4l-58 -266z" />
<glyph unicode="q" horiz-adv-x="706" d="M0 371v22q0 104 28.5 190.5t79.5 183.5q17 32 25 44l25 37l200 4q-3 4 -14 19t-21 28t-17 20q-1 1 -1 3q-4 0 -4 4q-4 4 -4 6q-4 0 -4 4q-1 1 -13.5 16t-19.5 19q16 3 44 7.5t51.5 8.5t43.5 8h7q10 2 46.5 7.5t53.5 11.5q15 0 22 4q162 -110 162 -320v-12q-2 -6 -2 -7 v-34q-37 -241 -188 -479h-176q0 -12 7 -23t20 -24l16 -16q9 -11 21 -22t21.5 -18.5t26.5 -18.5t25 -15.5t28 -16t25 -14.5h-301q-177 116 -205 303q-6 28 -6 45q0 4 -1 12.5t-1 12.5zM240 428q0 -146 57 -232q8 -10 12 -14q15 15 27 34.5t23 48t17 45.5t16.5 54t13.5 46 q11 40 14 53l12 53q3 16 6.5 46.5t5.5 43.5v33q-11 172 -73 203v4q-5 -14 -21 -38t-22 -40q-34 -68 -79 -242q-1 -3 -1 -8v-8q-2 -2 -2 -4v-4q-4 -15 -4 -37q-2 -10 -2 -18v-19z" />
<glyph unicode="r" horiz-adv-x="763" d="M2 -2l80 842l283 16q0 -1 -0.5 -4l-1.5 -9l-2 -12l-9 -61q-2 -15 -12 -80.5t-16 -101.5v-4q-2 -2 -2 -3v-14q-20 -106 -33 -235q25 42 71.5 115.5t55.5 87.5q55 78 55 155v8q0 3 -2 11q0 41 -48 96q-8 10 -17.5 19t-21.5 18.5t-20 16t-23.5 16.5t-22 14.5t-26 15 t-24 13.5t-26.5 14.5t-25 13.5q50 9 141 37h1q19 0 41.5 5.5t56 18t37.5 13.5q99 -35 161.5 -82.5t91.5 -124.5q15 -39 15 -80v-12q-11 -197 -236 -397l174 -297l-280 -27l-139 274l-39 -278z" />
<glyph unicode="s" horiz-adv-x="718" d="M4 0q128 132 174 188q55 63 55 113v10q-2 0 -2 1v1q-2 19 -12 38.5t-19 30t-28 30.5t-24 26q-6 7 -52 60v4q-59 59 -59 153q0 36 7 68t22.5 63t26.5 49.5t34 51t31 43.5h278q-5 -7 -20.5 -32.5t-22 -36t-18.5 -34t-17 -40.5t-9.5 -41t-4.5 -48q0 -20 3 -36t12 -32.5 t13 -23t19.5 -25.5t17.5 -22q12 -16 40.5 -45t38.5 -42q31 -40 48 -74.5t17 -80.5v-14q-2 -2 -2 -3v-3q-2 -32 -16 -64.5t-25.5 -50t-39.5 -52t-35 -43.5q-41 -54 -68 -87h-363zM420 666l49 342l231 18l-65 -354z" />
<glyph unicode="t" horiz-adv-x="624" d="M4 778l19 232l585 10l-30 -211l-119 -12l-131 -777l-256 -22l82 731l104 55z" />
<glyph unicode="u" horiz-adv-x="817" d="M0 317q0 57 4.5 118t9 102.5t17.5 113t18 97t23.5 109t21.5 99.5h293q-16 -74 -44 -204t-40 -183q-37 -168 -37 -280q0 -92 30 -148.5t95 -85.5l131 969h287l-174 -1026h-219q-2 2 -5 2h-253q-84 36 -121 112.5t-37 204.5z" />
<glyph unicode="v" horiz-adv-x="735" d="M-2 0v936h283l-29 -764l203 850h268l-274 -1022h-451z" />
<glyph unicode="w" horiz-adv-x="1026" d="M-6 0l2 948h278l-34 -639l163 639h218l34 -688l101 762h264l-184 -1022h-328l-35 561l-156 -561h-323z" />
<glyph unicode="x" horiz-adv-x="843" d="M2 -2l256 483q-98 243 -128 333q-1 2 -1 5q-4 10 -6 12l-17 50q-5 10 -24 69q0 -6 59 -6h65q20 0 70 2h95l73 -223l148 299h239l-303 -522l172 -504l-268 2l-90 233l-141 -233h-199z" />
<glyph unicode="y" horiz-adv-x="790" d="M0 602q0 170 27 342h116q6 -2 9 -2h155q-1 -5 -8.5 -49.5t-9 -53.5t-7.5 -48t-8 -53t-6.5 -48.5t-6 -54.5t-4 -50t-3 -57t-0.5 -55v-45q0 -19 2.5 -36t6.5 -36t6 -31q1 -5 7 -18l185 717h313l-313 -1028l-248 2l53 262l-221 -2q-14 33 -14 43l-4 16l-4 21 q-23 130 -23 264z" />
<glyph unicode="z" horiz-adv-x="831" d="M2 -4l367 823h-308l43 197h707l-461 -860h250l-47 -160h-551z" />
<glyph unicode="{" />
<glyph unicode="|" />
<glyph unicode="}" />
<glyph unicode="~" />
<glyph unicode="&#xa1;" />
<glyph unicode="&#xa2;" />
<glyph unicode="&#xa3;" />
<glyph unicode="&#xa4;" />
<glyph unicode="&#xa5;" />
<glyph unicode="&#xa6;" horiz-adv-x="512" />
<glyph unicode="&#xa7;" />
<glyph unicode="&#xa8;" />
<glyph unicode="&#xa9;" />
<glyph unicode="&#xaa;" />
<glyph unicode="&#xab;" />
<glyph unicode="&#xac;" horiz-adv-x="512" />
<glyph unicode="&#xad;" horiz-adv-x="512" />
<glyph unicode="&#xae;" />
<glyph unicode="&#xaf;" horiz-adv-x="512" />
<glyph unicode="&#xb0;" horiz-adv-x="512" />
<glyph unicode="&#xb1;" />
<glyph unicode="&#xb2;" horiz-adv-x="512" />
<glyph unicode="&#xb3;" horiz-adv-x="512" />
<glyph unicode="&#xb4;" />
<glyph unicode="&#xb5;" />
<glyph unicode="&#xb6;" />
<glyph unicode="&#xb7;" horiz-adv-x="512" />
<glyph unicode="&#xb8;" />
<glyph unicode="&#xb9;" horiz-adv-x="512" />
<glyph unicode="&#xba;" />
<glyph unicode="&#xbb;" />
<glyph unicode="&#xbc;" horiz-adv-x="512" />
<glyph unicode="&#xbd;" horiz-adv-x="512" />
<glyph unicode="&#xbe;" horiz-adv-x="512" />
<glyph unicode="&#xbf;" />
<glyph unicode="&#xc0;" />
<glyph unicode="&#xc1;" />
<glyph unicode="&#xc2;" />
<glyph unicode="&#xc3;" />
<glyph unicode="&#xc4;" />
<glyph unicode="&#xc5;" />
<glyph unicode="&#xc6;" />
<glyph unicode="&#xc7;" />
<glyph unicode="&#xc8;" />
<glyph unicode="&#xc9;" />
<glyph unicode="&#xca;" />
<glyph unicode="&#xcb;" />
<glyph unicode="&#xcc;" />
<glyph unicode="&#xcd;" />
<glyph unicode="&#xce;" />
<glyph unicode="&#xcf;" />
<glyph unicode="&#xd0;" horiz-adv-x="512" />
<glyph unicode="&#xd1;" />
<glyph unicode="&#xd2;" horiz-adv-x="512" />
<glyph unicode="&#xd3;" />
<glyph unicode="&#xd4;" />
<glyph unicode="&#xd5;" />
<glyph unicode="&#xd6;" />
<glyph unicode="&#xd7;" horiz-adv-x="512" />
<glyph unicode="&#xd8;" />
<glyph unicode="&#xd9;" />
<glyph unicode="&#xda;" />
<glyph unicode="&#xdb;" />
<glyph unicode="&#xdc;" />
<glyph unicode="&#xdd;" horiz-adv-x="512" />
<glyph unicode="&#xde;" horiz-adv-x="512" />
<glyph unicode="&#xdf;" />
<glyph unicode="&#xe0;" />
<glyph unicode="&#xe1;" />
<glyph unicode="&#xe2;" />
<glyph unicode="&#xe3;" />
<glyph unicode="&#xe4;" />
<glyph unicode="&#xe5;" />
<glyph unicode="&#xe6;" />
<glyph unicode="&#xe7;" />
<glyph unicode="&#xe8;" />
<glyph unicode="&#xe9;" />
<glyph unicode="&#xea;" />
<glyph unicode="&#xeb;" />
<glyph unicode="&#xec;" />
<glyph unicode="&#xed;" />
<glyph unicode="&#xee;" />
<glyph unicode="&#xef;" />
<glyph unicode="&#xf0;" horiz-adv-x="512" />
<glyph unicode="&#xf1;" />
<glyph unicode="&#xf2;" />
<glyph unicode="&#xf3;" />
<glyph unicode="&#xf4;" />
<glyph unicode="&#xf5;" />
<glyph unicode="&#xf6;" />
<glyph unicode="&#xf7;" horiz-adv-x="512" />
<glyph unicode="&#xf8;" />
<glyph unicode="&#xf9;" />
<glyph unicode="&#xfa;" />
<glyph unicode="&#xfb;" />
<glyph unicode="&#xfc;" />
<glyph unicode="&#xfd;" horiz-adv-x="512" />
<glyph unicode="&#xfe;" horiz-adv-x="512" />
<glyph unicode="&#xff;" />
<glyph unicode="&#x152;" />
<glyph unicode="&#x153;" />
<glyph unicode="&#x178;" />
<glyph unicode="&#x2c6;" />
<glyph unicode="&#x2dc;" />
<glyph unicode="&#x2000;" horiz-adv-x="821" />
<glyph unicode="&#x2001;" horiz-adv-x="1642" />
<glyph unicode="&#x2002;" horiz-adv-x="821" />
<glyph unicode="&#x2003;" horiz-adv-x="1642" />
<glyph unicode="&#x2004;" horiz-adv-x="547" />
<glyph unicode="&#x2005;" horiz-adv-x="410" />
<glyph unicode="&#x2006;" horiz-adv-x="273" />
<glyph unicode="&#x2007;" horiz-adv-x="273" />
<glyph unicode="&#x2008;" horiz-adv-x="205" />
<glyph unicode="&#x2009;" horiz-adv-x="328" />
<glyph unicode="&#x200a;" horiz-adv-x="91" />
<glyph unicode="&#x2010;" horiz-adv-x="804" d="M147 467l50 184h454l-61 -184h-443z" />
<glyph unicode="&#x2011;" horiz-adv-x="804" d="M147 467l50 184h454l-61 -184h-443z" />
<glyph unicode="&#x2012;" horiz-adv-x="804" d="M147 467l50 184h454l-61 -184h-443z" />
<glyph unicode="&#x2013;" />
<glyph unicode="&#x2014;" />
<glyph unicode="&#x2018;" />
<glyph unicode="&#x2019;" />
<glyph unicode="&#x201a;" horiz-adv-x="512" />
<glyph unicode="&#x201c;" />
<glyph unicode="&#x201d;" />
<glyph unicode="&#x201e;" />
<glyph unicode="&#x2022;" />
<glyph unicode="&#x2026;" />
<glyph unicode="&#x202f;" horiz-adv-x="328" />
<glyph unicode="&#x2039;" />
<glyph unicode="&#x203a;" />
<glyph unicode="&#x205f;" horiz-adv-x="410" />
<glyph unicode="&#x2122;" />
<glyph unicode="&#x25fc;" d="M0 0v1024h1024v-1024h-1024z" />
</font>
</defs>
</svg>
